<svg width="32" height="32" viewBox="0 0 32 32" fill="none" xmlns="http://www.w3.org/2000/svg">
<g clip-path="url(#clip0_1_2)">
<rect x="1" y="1" width="30" height="30" rx="7" fill="#FFF8F8"/>
<mask id="path-2-outside-1_1_2" maskUnits="userSpaceOnUse" x="1.7" y="5" width="28" height="20" fill="black">
<rect fill="white" x="1.7" y="5" width="28" height="20"/>
<path d="M10.8619 5.81818H13.0636V18.8153C13.0636 19.9754 12.8506 20.9608 12.4244 21.7717C11.9983 22.5825 11.3976 23.198 10.6222 23.6183C9.8469 24.0385 8.93248 24.2486 7.87897 24.2486C6.88466 24.2486 5.99983 24.0681 5.2245 23.707C4.44917 23.3401 3.83956 22.8192 3.39566 22.1445C2.95177 21.4698 2.72983 20.6679 2.72983 19.7386H4.89602C4.89602 20.2536 5.02327 20.7034 5.27777 21.0881C5.53818 21.4669 5.8933 21.7628 6.34311 21.9759C6.79292 22.1889 7.30487 22.2955 7.87897 22.2955C8.51226 22.2955 9.05085 22.1623 9.49474 21.896C9.93863 21.6296 10.276 21.239 10.5068 20.7241C10.7436 20.2032 10.8619 19.567 10.8619 18.8153V5.81818ZM17.7501 24H15.8111L21.4191 8.72727H23.3282L28.9361 24H26.9972L22.4333 11.1435H22.314L17.7501 24ZM18.466 18.0341H26.2813V19.6747H18.466V18.0341Z"/>
</mask>
<path d="M10.8619 5.81818H13.0636V18.8153C13.0636 19.9754 12.8506 20.9608 12.4244 21.7717C11.9983 22.5825 11.3976 23.198 10.6222 23.6183C9.8469 24.0385 8.93248 24.2486 7.87897 24.2486C6.88466 24.2486 5.99983 24.0681 5.2245 23.707C4.44917 23.3401 3.83956 22.8192 3.39566 22.1445C2.95177 21.4698 2.72983 20.6679 2.72983 19.7386H4.89602C4.89602 20.2536 5.02327 20.7034 5.27777 21.0881C5.53818 21.4669 5.8933 21.7628 6.34311 21.9759C6.79292 22.1889 7.30487 22.2955 7.87897 22.2955C8.51226 22.2955 9.05085 22.1623 9.49474 21.896C9.93863 21.6296 10.276 21.239 10.5068 20.7241C10.7436 20.2032 10.8619 19.567 10.8619 18.8153V5.81818ZM17.7501 24H15.8111L21.4191 8.72727H23.3282L28.9361 24H26.9972L22.4333 11.1435H22.314L17.7501 24ZM18.466 18.0341H26.2813V19.6747H18.466V18.0341Z" fill="url(#paint0_linear_1_2)"/>
<path d="M10.8619 5.81818V5.56818H10.6119V5.81818H10.8619ZM13.0636 5.81818H13.3136V5.56818H13.0636V5.81818ZM12.4244 21.7717L12.6457 21.888L12.6457 21.888L12.4244 21.7717ZM10.6222 23.6183L10.7414 23.838L10.7414 23.838L10.6222 23.6183ZM5.2245 23.707L5.11755 23.933L5.11897 23.9337L5.2245 23.707ZM3.39566 22.1445L3.18681 22.2819L3.18681 22.2819L3.39566 22.1445ZM2.72983 19.7386V19.4886H2.47983V19.7386H2.72983ZM4.89602 19.7386H5.14602V19.4886H4.89602V19.7386ZM5.27777 21.0881L5.06923 21.226L5.07176 21.2297L5.27777 21.0881ZM6.34311 21.9759L6.45013 21.7499L6.45013 21.7499L6.34311 21.9759ZM9.49474 21.896L9.36612 21.6816L9.36612 21.6816L9.49474 21.896ZM10.5068 20.7241L10.2792 20.6206L10.2787 20.6218L10.5068 20.7241ZM10.8619 6.06818H13.0636V5.56818H10.8619V6.06818ZM12.8136 5.81818V18.8153H13.3136V5.81818H12.8136ZM12.8136 18.8153C12.8136 19.9454 12.6061 20.8887 12.2031 21.6554L12.6457 21.888C13.0951 21.033 13.3136 20.0054 13.3136 18.8153H12.8136ZM12.2031 21.6554C11.7991 22.4241 11.2331 23.0028 10.5031 23.3985L10.7414 23.838C11.562 23.3933 12.1975 22.7409 12.6457 21.888L12.2031 21.6554ZM10.5031 23.3985C9.77084 23.7953 8.89895 23.9986 7.87897 23.9986V24.4986C8.96601 24.4986 9.92295 24.2816 10.7414 23.838L10.5031 23.3985ZM7.87897 23.9986C6.91522 23.9986 6.06735 23.8237 5.33003 23.4804L5.11897 23.9337C5.93231 24.3124 6.85409 24.4986 7.87897 24.4986V23.9986ZM5.33145 23.4811C4.59488 23.1325 4.02162 22.6411 3.60452 22.0071L3.18681 22.2819C3.65749 22.9974 4.30345 23.5477 5.11755 23.933L5.33145 23.4811ZM3.60452 22.0071C3.19134 21.3791 2.97983 20.6266 2.97983 19.7386H2.47983C2.47983 20.7091 2.71221 21.5605 3.18681 22.2819L3.60452 22.0071ZM2.72983 19.9886H4.89602V19.4886H2.72983V19.9886ZM4.64602 19.7386C4.64602 20.2967 4.78461 20.7957 5.06926 21.226L5.48627 20.9501C5.26193 20.611 5.14602 20.2104 5.14602 19.7386H4.64602ZM5.07176 21.2297C5.35921 21.6478 5.74983 21.9715 6.23609 22.2018L6.45013 21.7499C6.03677 21.5541 5.71716 21.2859 5.48378 20.9464L5.07176 21.2297ZM6.23609 22.2018C6.72412 22.433 7.27353 22.5455 7.87897 22.5455V22.0455C7.33622 22.0455 6.86172 21.9449 6.45013 21.7499L6.23609 22.2018ZM7.87897 22.5455C8.54747 22.5455 9.13278 22.4047 9.62337 22.1103L9.36612 21.6816C8.96891 21.9199 8.47705 22.0455 7.87897 22.0455V22.5455ZM9.62337 22.1103C10.1151 21.8153 10.4852 21.3835 10.7349 20.8263L10.2787 20.6218C10.0668 21.0945 9.76219 21.4439 9.36612 21.6816L9.62337 22.1103ZM10.7344 20.8275C10.9898 20.2657 11.1119 19.592 11.1119 18.8153H10.6119C10.6119 19.542 10.4973 20.1408 10.2792 20.6206L10.7344 20.8275ZM11.1119 18.8153V5.81818H10.6119V18.8153H11.1119ZM17.7501 24V24.25H17.9266L17.9857 24.0836L17.7501 24ZM15.8111 24L15.5765 23.9138L15.453 24.25H15.8111V24ZM21.4191 8.72727V8.47727H21.2446L21.1844 8.6411L21.4191 8.72727ZM23.3282 8.72727L23.5629 8.6411L23.5027 8.47727H23.3282V8.72727ZM28.9361 24V24.25H29.2943L29.1708 23.9138L28.9361 24ZM26.9972 24L26.7616 24.0836L26.8207 24.25H26.9972V24ZM22.4333 11.1435L22.6689 11.0598L22.6098 10.8935H22.4333V11.1435ZM22.314 11.1435V10.8935H22.1375L22.0784 11.0598L22.314 11.1435ZM18.466 18.0341V17.7841H18.216V18.0341H18.466ZM26.2813 18.0341H26.5313V17.7841H26.2813V18.0341ZM26.2813 19.6747V19.9247H26.5313V19.6747H26.2813ZM18.466 19.6747H18.216V19.9247H18.466V19.6747ZM17.7501 23.75H15.8111V24.25H17.7501V23.75ZM16.0458 24.0862L21.6538 8.81344L21.1844 8.6411L15.5765 23.9138L16.0458 24.0862ZM21.4191 8.97727H23.3282V8.47727H21.4191V8.97727ZM23.0935 8.81344L28.7015 24.0862L29.1708 23.9138L23.5629 8.6411L23.0935 8.81344ZM28.9361 23.75H26.9972V24.25H28.9361V23.75ZM27.2328 23.9164L22.6689 11.0598L22.1977 11.2271L26.7616 24.0836L27.2328 23.9164ZM22.4333 10.8935H22.314V11.3935H22.4333V10.8935ZM22.0784 11.0598L17.5145 23.9164L17.9857 24.0836L22.5496 11.2271L22.0784 11.0598ZM18.466 18.2841H26.2813V17.7841H18.466V18.2841ZM26.0313 18.0341V19.6747H26.5313V18.0341H26.0313ZM26.2813 19.4247H18.466V19.9247H26.2813V19.4247ZM18.716 19.6747V18.0341H18.216V19.6747H18.716Z" fill="black" mask="url(#path-2-outside-1_1_2)"/>
</g>
<defs>
<linearGradient id="paint0_linear_1_2" x1="17.7" y1="0" x2="17.7" y2="32" gradientUnits="userSpaceOnUse">
<stop stop-color="#7E5050" stop-opacity="0.6"/>
<stop offset="0.6" stop-color="#4D4F8D"/>
</linearGradient>
<clipPath id="clip0_1_2">
<rect width="32" height="32" fill="white"/>
</clipPath>
</defs>
</svg>
